Coordinates
version=1
nRows=22
nColumns=24
inDegrees=yes

Units are S.I. units (second, meters, Newtons, ...)
Angles are in degrees.

endheader
time	pelvis_tilt	pelvis_list	pelvis_rotation	pelvis_tx	pelvis_ty	pelvis_tz	hip_flexion_r	hip_adduction_r	hip_rotation_r	knee_angle_r	ankle_angle_r	subtalar_angle_r	mtp_angle_r	hip_flexion_l	hip_adduction_l	hip_rotation_l	knee_angle_l	ankle_angle_l	subtalar_angle_l	mtp_angle_l	lumbar_extension	lumbar_bending	lumbar_rotation
      3.78000000	    -10.29315857	     14.52013417	     -0.65636933	     -0.24274677	     -0.05095855	      0.70188937	     20.49093510	    -18.73552812	      1.63530473	    -67.55575081	    -30.10793015	     -6.78880879	     45.54374353	     31.40819069	     16.31344286	      2.31779775	    -32.62584287	     10.80893250	     -7.96338938	    -19.68759120	      9.01001240	    -16.83279035	      2.81242831
      3.78500000	    -10.15689095	     14.44181263	     -0.54088697	     -0.23510603	     -0.04908948	      0.70128366	     21.32515789	    -18.74926230	      1.43560827	    -68.45698489	    -29.19961010	     -7.19464175	     44.78247980	     30.40729473	     16.47609648	      2.85655475	    -32.09559045	     11.05558003	     -8.19871061	    -19.96418513	      8.99655598	    -16.76354323	      2.45065757
      3.79000000	    -10.03110017	     14.37310225	     -0.43388213	     -0.22753352	     -0.04724649	      0.70070214	     22.17605274	    -18.76207540	      1.27330053	    -69.27894310	    -28.37434339	     -7.53006134	     44.26012337	     29.41256181	     16.63546917	      3.43366762	    -31.54932047	     11.26756296	     -8.40140672	    -20.12753373	      8.98518285	    -16.70295869	      2.13082166
      3.79500000	     -9.89023344	     14.20288104	     -0.36434505	     -0.22002793	     -0.04530682	      0.70014248	     22.98900018	    -18.62701713	      1.14241506	    -69.99219905	    -27.60433380	     -7.76101856	     43.65588431	     28.39006233	     16.68826695	      4.06100185	    -30.97597956	     11.39106597	     -8.81982810	    -20.37704100	      8.95162639	    -16.52059045	      1.84148179
      3.80000000	     -9.72620720	     14.08176898	     -0.26128222	     -0.21258721	     -0.04344697	      0.69959786	     23.76135713	    -18.56154641	      0.96943215	    -70.66278197	    -26.74168349	     -7.95694404	     42.86037732	     27.36135635	     16.78022238	      4.62855532	    -30.42201307	     11.58086676	     -9.16968100	    -20.82809982	      8.86845717	    -16.40116840	      1.48349930
      3.80500000	     -9.62950340	     13.88674770	     -0.22527899	     -0.20508964	     -0.04154898	      0.69912254	     24.59777227	    -18.34934464	      0.90293330	    -71.19007446	    -26.15933870	     -8.17106429	     42.51637642	     26.36653451	     16.76530620	      5.26168493	    -29.80006953	     11.68648103	     -9.62335548	    -21.18184934	      8.89830693	    -16.17935029	      1.24800688
      3.81000000	     -9.41427250	     13.73400329	     -0.16303570	     -0.19765265	     -0.03965049	      0.69868959	     25.27856900	    -18.20172401	      0.76637055	    -71.71084284	    -25.27372749	     -8.18956890	     41.18795664	     25.26347299	     16.79802979	      5.88327172	    -29.24027670	     12.32574593	     -9.84735282	    -22.98316470	      8.76360707	    -16.02597041	      0.94785123
      3.81500000	     -9.38202699	     13.55314146	     -0.07720915	     -0.19029399	     -0.03791884	      0.69810834	     26.14897739	    -18.01460805	      0.66595654	    -72.08270042	    -24.82974279	     -8.56291002	     41.18391898	     24.34317381	     16.80257586	      6.55536744	    -28.60594745	     12.30835584	    -10.40370029	    -23.35230298	      8.82851958	    -15.81599622	      0.64790408
      3.82000000	     -9.22119109	     13.40868473	      0.07660834	     -0.18286756	     -0.03608884	      0.69753210	     26.80382765	    -17.91325794	      0.44648712	    -72.37846248	    -24.24456705	     -8.89590306	     40.72112088	     23.24863943	     16.86311465	      7.30178417	    -27.94654600	     12.48033739	    -10.82759347	    -24.20598367	      8.73069651	    -15.68229034	      0.25666399
      3.82500000	     -9.06029562	     13.17598373	      0.07499489	     -0.17565222	     -0.03434022	      0.69713955	     27.51673886	    -17.60399069	      0.38880245	    -72.65762855	    -23.58246250	     -9.04884493	     39.52316364	     22.22235805	     16.76063888	      7.92798035	    -27.39268544	     13.24210548	    -11.00103067	    -26.46758816	      8.63509423	    -15.41137410	      0.00271856
      3.83000000	     -9.04602535	     13.00904849	      0.17055971	     -0.16845053	     -0.03281101	      0.69655429	     28.35521599	    -17.41735212	      0.28169806	    -72.81901068	    -23.22145622	     -9.59560032	     39.42821787	     21.32970617	     16.74619836	      8.59231774	    -26.74892671	     13.20789748	    -11.48582408	    -26.81829684	      8.68565719	    -15.21685679	     -0.31288615
      3.83500000	     -8.93892135	     12.79950904	      0.25321263	     -0.16128141	     -0.03120739	      0.69603125	     29.05322493	    -17.17851637	      0.13367235	    -72.90663449	    -22.82894196	    -10.15191293	     38.84467396	     20.33461001	     16.66879645	      9.25166598	    -26.10249828	     13.24758254	    -11.89138902	    -27.24978669	      8.62138501	    -14.98076268	     -0.65414117
      3.84000000	     -8.84034368	     12.59954572	      0.32722946	     -0.15413331	     -0.02969681	      0.69551911	     29.75123501	    -16.94639203	     -0.01723163	    -72.94735053	    -22.43796992	    -10.76518862	     37.91176623	     19.35773620	     16.58179240	      9.87114234	    -25.45930271	     13.32792687	    -12.26437167	    -27.77958789	      8.56757845	    -14.75169872	     -0.98155096
      3.84500000	     -8.73915256	     12.37021445	      0.35530734	     -0.14699353	     -0.02825760	      0.69513226	     30.43831918	    -16.64099659	     -0.12471787	    -72.95797167	    -21.90453169	    -11.17367183	     36.27304164	     18.40440635	     16.42289850	     10.39394129	    -24.85841405	     13.72082213	    -12.45232147	    -28.96078022	      8.52080172	    -14.48498094	     -1.25199467
      3.85000000	     -8.70825724	     12.21214941	      0.43877680	     -0.13997921	     -0.02700802	      0.69459529	     31.19606705	    -16.45597067	     -0.26086005	    -72.87256970	    -21.71617913	    -12.08606409	     35.62605539	     17.52281369	     16.36370255	     10.99132396	    -24.20909556	     13.67821485	    -12.96368694	    -29.41855416	      8.51662802	    -14.29519872	     -1.57805438
      3.85500000	     -8.58762988	     11.97411573	      0.48186974	     -0.13292715	     -0.02571489	      0.69417518	     31.81915181	    -16.16180083	     -0.42685639	    -72.76200445	    -21.28184699	    -12.73031571	     33.71056521	     16.56313819	     16.18640870	     11.52751437	    -23.61475404	     14.04309874	    -13.20331686	    -30.59391907	      8.42388195	    -14.01687666	     -1.89037149
      3.86000000	     -8.55876448	     11.84304252	      0.55834177	     -0.12593301	     -0.02465351	      0.69366043	     32.55122697	    -16.01206829	     -0.57381795	    -72.56873664	    -21.18783703	    -13.81242105	     32.79363538	     15.70187545	     16.13224018	     12.09084050	    -22.98053216	     14.01218228	    -13.69568912	    -31.12497024	      8.42217075	    -13.85281579	     -2.18724882
      3.86500000	     -8.44932225	     11.60813276	      0.59242541	     -0.11898652	     -0.02359169	      0.69328335	     33.16492702	    -15.71150630	     -0.73227124	    -72.36259490	    -20.80531090	    -14.56315963	     30.62229000	     14.79144430	     15.93917833	     12.59080093	    -22.42777183	     14.36571028	    -13.94126833	    -32.22840797	      8.31910651	    -13.57520474	     -2.50307433
      3.87000000	     -8.37918774	     11.43348684	      0.64568985	     -0.11206398	     -0.02268048	      0.69286330	     33.81519685	    -15.49679989	     -0.89094857	    -72.08518538	    -20.62818415	    -15.56220148	     28.95308710	     13.92108490	     15.81343140	     13.12696202	    -21.85887509	     14.58214104	    -14.27112765	    -33.16134886	      8.25419615	    -13.36292050	     -2.80525409
      3.87500000	     -8.31572401	     11.27584042	      0.68342546	     -0.10516582	     -0.02189181	      0.69248959	     34.46620462	    -15.28674958	     -1.02245850	    -71.76297206	    -20.45740514	    -16.55437830	     27.23537784	     13.07329304	     15.68950492	     13.61913842	    -21.30292315	     14.74734900	    -14.57204088	    -33.86571193	      8.19359848	    -13.16650478	     -3.08597721
      3.88000000	     -8.24491170	     11.13946951	      0.71811497	     -0.09834520	     -0.02122051	      0.69216216	     35.10757491	    -15.08869555	     -1.12723374	    -71.39847986	    -20.35220073	    -17.56275300	     25.56012353	     12.23339975	     15.57698737	     14.11729439	    -20.76842149	     14.87467304	    -14.83192058	    -34.33104240	      8.10805763	    -12.99764652	     -3.36622733
      3.88500000	     -8.17898952	     10.97715079	      0.74722760	     -0.09146006	     -0.02060762	      0.69187710	     35.71163556	    -14.86256855	     -1.25648756	    -70.97026953	    -20.11367124	    -18.44027855	     23.65562505	     11.41474760	     15.41924508	     14.49964395	    -20.24928878	     14.99986755	    -15.05793417	    -34.77536848	      8.04005382	    -12.79674862	     -3.63216328
